<svg xmlns="http://www.w3.org/2000/svg" version="1.1" xmlns:xlink="http://www.w3.org/1999/xlink" xmlns:svgjs="http://svgjs.dev/svgjs" width="1000" height="843" viewBox="0 0 1000 843"><g transform="matrix(1,0,0,1,0.2854123777012205,0.3412955465586833)"><svg viewBox="0 0 293 247" data-background-color="#ffffff" preserveAspectRatio="xMidYMid meet" height="843" width="1000" xmlns="http://www.w3.org/2000/svg" xmlns:xlink="http://www.w3.org/1999/xlink"><g id="tight-bounds" transform="matrix(1,0,0,1,-0.0836258266664629,-0.09999999999999432)"><svg viewBox="0 0 293.1672516533329 247.2" height="247.2" width="293.1672516533329"><g><svg viewBox="0 0 395.52 333.50431689967525" height="247.2" width="293.1672516533329"><g transform="matrix(1,0,0,1,0,244.58914770809912)"><svg viewBox="0 0 395.52 88.91516919157613" height="88.91516919157613" width="395.52"><g id="textblocktransform"><svg viewBox="0 0 395.52 88.91516919157613" height="88.91516919157613" width="395.52" id="textblock"><g><svg viewBox="0 0 395.52 53.9731805157593" height="53.9731805157593" width="395.52"><g transform="matrix(1,0,0,1,0,0)"><svg width="395.52" viewBox="5 -37.5 279.17 38.1" height="53.9731805157593" data-palette-color="#000000"><path d="M14.05-34.45Q20.45-34.45 23.95-31.78 27.45-29.1 27.45-23.8L27.45-23.8Q27.45-18.15 23.8-15.4 20.15-12.65 14.1-12.65L14.1-12.65 9.75-12.65 9.75 0 5 0 5-34.45 14.05-34.45ZM13.9-16.4Q18.05-16.4 20.23-18 22.4-19.6 22.4-23.75L22.4-23.75Q22.4-27.45 20.23-29.1 18.05-30.75 14-30.75L14-30.75 9.75-30.75 9.75-16.4 13.9-16.4ZM53.4-26.35L53.4 0 49.45 0 49.1-4.1Q47.6-1.65 45.65-0.53 43.7 0.6 40.9 0.6L40.9 0.6Q37.45 0.6 35.5-1.5 33.55-3.6 33.55-7.45L33.55-7.45 33.55-26.35 38.15-26.35 38.15-7.95Q38.15-5.25 39.1-4.13 40.05-3 42.2-3L42.2-3Q46.05-3 48.8-7.55L48.8-7.55 48.8-26.35 53.4-26.35ZM68.15 0.6Q65.59 0.6 64.12-0.93 62.65-2.45 62.65-5.2L62.65-5.2 62.65-36.95 67.25-37.5 67.25-5.3Q67.25-4.2 67.62-3.7 68-3.2 68.9-3.2L68.9-3.2Q69.84-3.2 70.59-3.5L70.59-3.5 71.8-0.3Q70.15 0.6 68.15 0.6L68.15 0.6ZM84.69-26.95Q87.39-26.95 89.54-26.2 91.69-25.45 93.64-23.95L93.64-23.95 91.69-21.05Q89.89-22.2 88.27-22.75 86.64-23.3 84.84-23.3L84.84-23.3Q82.59-23.3 81.29-22.38 79.99-21.45 79.99-19.85L79.99-19.85Q79.99-18.25 81.22-17.35 82.44-16.45 85.64-15.6L85.64-15.6Q90.04-14.5 92.22-12.6 94.39-10.7 94.39-7.4L94.39-7.4Q94.39-3.5 91.37-1.45 88.34 0.6 83.99 0.6L83.99 0.6Q77.99 0.6 74.04-2.85L74.04-2.85 76.49-5.65Q79.84-3.1 83.89-3.1L83.89-3.1Q86.49-3.1 88.02-4.17 89.54-5.25 89.54-7.1L89.54-7.1Q89.54-8.45 88.99-9.28 88.44-10.1 87.09-10.73 85.74-11.35 83.14-12.05L83.14-12.05Q78.94-13.15 77.07-15 75.19-16.85 75.19-19.7L75.19-19.7Q75.19-21.75 76.42-23.43 77.64-25.1 79.82-26.03 81.99-26.95 84.69-26.95L84.69-26.95ZM120.79-13.95Q120.79-12.8 120.69-11.6L120.69-11.6 103.89-11.6Q104.19-7.25 106.09-5.2 107.99-3.15 110.99-3.15L110.99-3.15Q112.89-3.15 114.49-3.7 116.09-4.25 117.84-5.45L117.84-5.45 119.84-2.7Q115.64 0.6 110.64 0.6L110.64 0.6Q105.14 0.6 102.07-3 98.99-6.6 98.99-12.9L98.99-12.9Q98.99-17 100.32-20.18 101.64-23.35 104.12-25.15 106.59-26.95 109.94-26.95L109.94-26.95Q115.19-26.95 117.99-23.5 120.79-20.05 120.79-13.95L120.79-13.95ZM116.24-15L116.24-15.3Q116.24-19.2 114.69-21.25 113.14-23.3 110.04-23.3L110.04-23.3Q104.39-23.3 103.89-15L103.89-15 116.24-15ZM141.64-34.45L160.29-34.45 159.74-30.65 146.39-30.65 146.39-19.4 157.99-19.4 157.99-15.6 146.39-15.6 146.39-3.8 160.69-3.8 160.69 0 141.64 0 141.64-34.45ZM182.63-26.35L187.48-26.35 178.53 0 172.98 0 163.88-26.35 168.88-26.35 175.78-4.1 182.63-26.35ZM212.63-13.95Q212.63-12.8 212.53-11.6L212.53-11.6 195.73-11.6Q196.03-7.25 197.93-5.2 199.83-3.15 202.83-3.15L202.83-3.15Q204.73-3.15 206.33-3.7 207.93-4.25 209.68-5.45L209.68-5.45 211.68-2.7Q207.48 0.6 202.48 0.6L202.48 0.6Q196.98 0.6 193.91-3 190.83-6.6 190.83-12.9L190.83-12.9Q190.83-17 192.16-20.18 193.48-23.35 195.96-25.15 198.43-26.95 201.78-26.95L201.78-26.95Q207.03-26.95 209.83-23.5 212.63-20.05 212.63-13.95L212.63-13.95ZM208.08-15L208.08-15.3Q208.08-19.2 206.53-21.25 204.98-23.3 201.88-23.3L201.88-23.3Q196.23-23.3 195.73-15L195.73-15 208.08-15ZM232.38-26.95Q235.98-26.95 238-24.8 240.03-22.65 240.03-18.9L240.03-18.9 240.03 0 235.43 0 235.43-18.25Q235.43-21.05 234.38-22.2 233.33-23.35 231.28-23.35L231.28-23.35Q229.18-23.35 227.58-22.15 225.98-20.95 224.58-18.7L224.58-18.7 224.58 0 219.98 0 219.98-26.35 223.93-26.35 224.33-22.45Q225.73-24.55 227.8-25.75 229.88-26.95 232.38-26.95L232.38-26.95ZM260.83-4.25L262.58-1.2Q259.98 0.6 256.68 0.6L256.68 0.6Q253.33 0.6 251.45-1.33 249.58-3.25 249.58-6.9L249.58-6.9 249.58-22.8 244.98-22.8 244.98-26.35 249.58-26.35 249.58-32.3 254.18-32.85 254.18-26.35 260.43-26.35 259.93-22.8 254.18-22.8 254.18-7.1Q254.18-5.05 254.9-4.13 255.63-3.2 257.33-3.2L257.33-3.2Q258.88-3.2 260.83-4.25L260.83-4.25ZM274.47-26.95Q277.17-26.95 279.32-26.2 281.47-25.45 283.42-23.95L283.42-23.95 281.47-21.05Q279.67-22.2 278.05-22.75 276.42-23.3 274.62-23.3L274.62-23.3Q272.37-23.3 271.07-22.38 269.77-21.45 269.77-19.85L269.77-19.85Q269.77-18.25 271-17.35 272.22-16.45 275.42-15.6L275.42-15.6Q279.82-14.5 282-12.6 284.17-10.7 284.17-7.4L284.17-7.4Q284.17-3.5 281.15-1.45 278.12 0.6 273.77 0.6L273.77 0.6Q267.77 0.6 263.82-2.85L263.82-2.85 266.27-5.65Q269.62-3.1 273.67-3.1L273.67-3.1Q276.27-3.1 277.8-4.17 279.32-5.25 279.32-7.1L279.32-7.1Q279.32-8.45 278.77-9.28 278.22-10.1 276.87-10.73 275.52-11.35 272.92-12.05L272.92-12.05Q268.72-13.15 266.85-15 264.97-16.85 264.97-19.7L264.97-19.7Q264.97-21.75 266.2-23.43 267.42-25.1 269.6-26.03 271.77-26.95 274.47-26.95L274.47-26.95Z" opacity="1" transform="matrix(1,0,0,1,0,0)" fill="#ffffff" class="wordmark-text-0" data-fill-palette-color="primary" id="text-0"></path></svg></g></svg></g><g transform="matrix(1,0,0,1,0,66.7149530791977)"><svg viewBox="0 0 395.52 22.200216112378435" height="22.200216112378435" width="395.52"><g transform="matrix(1,0,0,1,0,0)"><svg width="395.52" viewBox="5.05 -34.45 832.82 46.75" height="22.200216112378435" data-palette-color="#000000"><path d="M8.95 0L5.05 0 5.05-31.4 24.15-31.4 24.15-28.05 8.95-28.05 8.95-17.6 23.1-17.6 23.1-14.25 8.95-14.25 8.95 0ZM38.15 0.6L38.15 0.6Q35.05 0.6 32.61-0.99 30.17-2.58 28.76-5.4 27.35-8.22 27.35-11.9L27.35-11.9Q27.35-15.83 28.75-18.65 30.15-21.48 32.59-22.99 35.02-24.5 38.15-24.5L38.15-24.5Q40.87-24.5 42.8-23.4 44.72-22.3 45.9-20.43 47.07-18.55 47.54-16.19 48-13.83 47.8-11.3L47.8-11.3 30.5-11.3 30.5-13.7 45.22-13.7 44.07-12.95Q44.15-14.43 43.91-15.9 43.67-17.38 43.02-18.61 42.37-19.85 41.2-20.6 40.02-21.35 38.2-21.35L38.2-21.35Q35.9-21.35 34.35-20.18 32.8-19 32.02-17.09 31.25-15.18 31.25-12.95L31.25-12.95 31.25-11.35Q31.25-8.85 32.01-6.88 32.77-4.9 34.3-3.75 35.82-2.6 38.15-2.6L38.15-2.6Q40.47-2.6 41.97-3.73 43.47-4.85 43.8-7.05L43.8-7.05 47.85-7.05Q47.47-4.67 46.15-2.96 44.82-1.25 42.77-0.33 40.72 0.6 38.15 0.6ZM63.82 0.6L63.82 0.6Q60.72 0.6 58.28-0.99 55.85-2.58 54.43-5.4 53.02-8.22 53.02-11.9L53.02-11.9Q53.02-15.83 54.42-18.65 55.82-21.48 58.26-22.99 60.7-24.5 63.82-24.5L63.82-24.5Q66.55-24.5 68.47-23.4 70.4-22.3 71.57-20.43 72.75-18.55 73.21-16.19 73.67-13.83 73.47-11.3L73.47-11.3 56.17-11.3 56.17-13.7 70.9-13.7 69.75-12.95Q69.82-14.43 69.58-15.9 69.34-17.38 68.7-18.61 68.05-19.85 66.87-20.6 65.7-21.35 63.87-21.35L63.87-21.35Q61.57-21.35 60.02-20.18 58.47-19 57.7-17.09 56.92-15.18 56.92-12.95L56.92-12.95 56.92-11.35Q56.92-8.85 57.68-6.88 58.45-4.9 59.97-3.75 61.5-2.6 63.82-2.6L63.82-2.6Q66.15-2.6 67.65-3.73 69.15-4.85 69.47-7.05L69.47-7.05 73.52-7.05Q73.15-4.67 71.82-2.96 70.5-1.25 68.45-0.33 66.4 0.6 63.82 0.6ZM85.09 0L81.19 0 81.19-34.1 85.09-34.1 85.09 0ZM114.41 0.6L114.41 0.6Q112.46 0.6 110.91-0.15 109.36-0.9 108.46-2.4 107.56-3.9 107.56-6.15L107.56-6.15 107.56-30.55 111.41-30.55 111.41-6.25Q111.41-2.55 114.86-2.55L114.86-2.55Q115.89-2.55 116.85-2.78 117.81-3 119.01-3.45L119.01-3.45 119.56-0.65Q118.29-0.1 117.03 0.25 115.76 0.6 114.41 0.6ZM118.96-21.2L103.71-21.2 103.71-23.9 118.96-23.9 118.96-21.2ZM146.71 0L142.86 0 142.86-14.05Q142.86-17.48 141.22-19.26 139.59-21.05 136.76-21.05L136.76-21.05Q134.61-21.05 133.04-19.88 131.46-18.7 130.61-16.51 129.76-14.33 129.76-11.3L129.76-11.3 128.26-11.3Q128.26-15.48 129.36-18.43 130.46-21.38 132.57-22.94 134.69-24.5 137.71-24.5L137.71-24.5Q140.54-24.5 142.55-23.24 144.56-21.98 145.64-19.63 146.71-17.28 146.71-14.05L146.71-14.05 146.71 0ZM129.76 0L125.86 0 125.86-34.1 129.76-34.1 129.76 0ZM164.33 0.6L164.33 0.6Q161.23 0.6 158.8-0.99 156.36-2.58 154.95-5.4 153.53-8.22 153.53-11.9L153.53-11.9Q153.53-15.83 154.93-18.65 156.33-21.48 158.77-22.99 161.21-24.5 164.33-24.5L164.33-24.5Q167.06-24.5 168.98-23.4 170.91-22.3 172.08-20.43 173.26-18.55 173.72-16.19 174.18-13.83 173.98-11.3L173.98-11.3 156.68-11.3 156.68-13.7 171.41-13.7 170.26-12.95Q170.33-14.43 170.1-15.9 169.86-17.38 169.21-18.61 168.56-19.85 167.38-20.6 166.21-21.35 164.38-21.35L164.38-21.35Q162.08-21.35 160.53-20.18 158.98-19 158.21-17.09 157.43-15.18 157.43-12.95L157.43-12.95 157.43-11.35Q157.43-8.85 158.2-6.88 158.96-4.9 160.48-3.75 162.01-2.6 164.33-2.6L164.33-2.6Q166.66-2.6 168.16-3.73 169.66-4.85 169.98-7.05L169.98-7.05 174.03-7.05Q173.66-4.67 172.33-2.96 171.01-1.25 168.96-0.33 166.91 0.6 164.33 0.6ZM231.08 0L227.18 0 227.18-14.05Q227.18-17.48 225.54-19.26 223.9-21.05 221.13-21.05L221.13-21.05Q217.88-21.05 216.15-18.54 214.43-16.03 214.43-11.6L214.43-11.6 212.63-11.6Q212.63-14.83 213.27-17.25 213.9-19.68 215.13-21.29 216.35-22.9 218.1-23.7 219.85-24.5 222.08-24.5L222.08-24.5Q224.9-24.5 226.92-23.24 228.93-21.98 230-19.63 231.08-17.28 231.08-14.05L231.08-14.05 231.08 0ZM197.48 0L193.58 0 193.58-23.9 196.93-23.9 197.38-19.1Q198.5-21.7 200.54-23.1 202.58-24.5 205.43-24.5L205.43-24.5Q208.25-24.5 210.27-23.24 212.28-21.98 213.35-19.63 214.43-17.28 214.43-14.05L214.43-14.05 214.43 0 210.58 0 210.58-14.05Q210.58-17.48 208.94-19.26 207.3-21.05 204.48-21.05L204.48-21.05Q202.33-21.05 200.75-19.88 199.18-18.7 198.33-16.51 197.48-14.33 197.48-11.3L197.48-11.3 197.48 0ZM249 0.6L249 0.6Q245.78 0.6 243.26-0.83 240.75-2.25 239.3-5.05 237.85-7.85 237.85-11.95L237.85-11.95Q237.85-16.07 239.3-18.86 240.75-21.65 243.26-23.08 245.78-24.5 249-24.5L249-24.5Q252.2-24.5 254.71-23.08 257.23-21.65 258.66-18.86 260.1-16.07 260.1-11.95L260.1-11.95Q260.1-7.85 258.66-5.05 257.23-2.25 254.71-0.83 252.2 0.6 249 0.6ZM248.9-2.8L248.9-2.8Q251.23-2.8 252.85-3.91 254.48-5.03 255.31-7.08 256.15-9.13 256.15-11.95L256.15-11.95Q256.15-16.23 254.38-18.69 252.6-21.15 249.1-21.15L249.1-21.15Q246.75-21.15 245.14-20.04 243.53-18.93 242.69-16.86 241.85-14.8 241.85-11.95L241.85-11.95Q241.85-7.73 243.64-5.26 245.43-2.8 248.9-2.8ZM305.17 0L301.27 0 301.27-14.05Q301.27-17.48 299.64-19.26 298-21.05 295.22-21.05L295.22-21.05Q291.97-21.05 290.25-18.54 288.52-16.03 288.52-11.6L288.52-11.6 286.72-11.6Q286.72-14.83 287.36-17.25 288-19.68 289.22-21.29 290.45-22.9 292.2-23.7 293.95-24.5 296.17-24.5L296.17-24.5Q299-24.5 301.01-23.24 303.02-21.98 304.1-19.63 305.17-17.28 305.17-14.05L305.17-14.05 305.17 0ZM271.57 0L267.67 0 267.67-23.9 271.02-23.9 271.47-19.1Q272.6-21.7 274.64-23.1 276.67-24.5 279.52-24.5L279.52-24.5Q282.35-24.5 284.36-23.24 286.37-21.98 287.45-19.63 288.52-17.28 288.52-14.05L288.52-14.05 288.52 0 284.67 0 284.67-14.05Q284.67-17.48 283.04-19.26 281.4-21.05 278.57-21.05L278.57-21.05Q276.42-21.05 274.85-19.88 273.27-18.7 272.42-16.51 271.57-14.33 271.57-11.3L271.57-11.3 271.57 0ZM322.75 0.6L322.75 0.6Q319.65 0.6 317.21-0.99 314.77-2.58 313.36-5.4 311.95-8.22 311.95-11.9L311.95-11.9Q311.95-15.83 313.35-18.65 314.75-21.48 317.18-22.99 319.62-24.5 322.75-24.5L322.75-24.5Q325.47-24.5 327.4-23.4 329.32-22.3 330.5-20.43 331.67-18.55 332.13-16.19 332.6-13.83 332.4-11.3L332.4-11.3 315.1-11.3 315.1-13.7 329.82-13.7 328.67-12.95Q328.75-14.43 328.51-15.9 328.27-17.38 327.62-18.61 326.97-19.85 325.8-20.6 324.62-21.35 322.8-21.35L322.8-21.35Q320.5-21.35 318.95-20.18 317.4-19 316.62-17.09 315.85-15.18 315.85-12.95L315.85-12.95 315.85-11.35Q315.85-8.85 316.61-6.88 317.37-4.9 318.9-3.75 320.42-2.6 322.75-2.6L322.75-2.6Q325.07-2.6 326.57-3.73 328.07-4.85 328.4-7.05L328.4-7.05 332.45-7.05Q332.07-4.67 330.75-2.96 329.42-1.25 327.37-0.33 325.32 0.6 322.75 0.6ZM360.97 0L357.12 0 357.12-14.05Q357.12-17.48 355.48-19.26 353.84-21.05 351.02-21.05L351.02-21.05Q348.87-21.05 347.29-19.88 345.72-18.7 344.87-16.51 344.02-14.33 344.02-11.3L344.02-11.3 342.52-11.3Q342.52-15.48 343.62-18.43 344.72-21.38 346.83-22.94 348.94-24.5 351.97-24.5L351.97-24.5Q354.79-24.5 356.81-23.24 358.82-21.98 359.89-19.63 360.97-17.28 360.97-14.05L360.97-14.05 360.97 0ZM344.02 0L340.12 0 340.12-23.9 343.47-23.9 344.02-18.4 344.02 0ZM377.64 0.6L377.64 0.6Q375.69 0.6 374.14-0.15 372.59-0.9 371.69-2.4 370.79-3.9 370.79-6.15L370.79-6.15 370.79-30.55 374.64-30.55 374.64-6.25Q374.64-2.55 378.09-2.55L378.09-2.55Q379.12-2.55 380.08-2.78 381.04-3 382.24-3.45L382.24-3.45 382.79-0.65Q381.52-0.1 380.25 0.25 378.99 0.6 377.64 0.6ZM382.19-21.2L366.94-21.2 366.94-23.9 382.19-23.9 382.19-21.2ZM388.49 5.45L388.49 5.45 385.54 4Q386.96 3.28 387.95 2.4 388.94 1.53 389.24 0.25L389.24 0.25Q388.16 0.13 387.4-0.53 386.64-1.18 386.64-2.25L386.64-2.25Q386.64-3.3 387.43-4.05 388.21-4.8 389.44-4.8L389.44-4.8Q390.99-4.8 391.94-3.68 392.89-2.55 392.89-1L392.89-1Q392.89 0.83 391.78 2.59 390.66 4.35 388.49 5.45ZM414.36-29.55L414.36-29.55Q413.16-29.55 412.48-30.24 411.81-30.93 411.81-32.05L411.81-32.05Q411.81-33.15 412.48-33.8 413.16-34.45 414.36-34.45L414.36-34.45Q415.56-34.45 416.26-33.8 416.96-33.15 416.96-32.05L416.96-32.05Q416.96-30.93 416.26-30.24 415.56-29.55 414.36-29.55ZM408.76 12.3L408.76 12.3Q407.03 12.3 405.41 11.84 403.78 11.38 402.06 10.45L402.06 10.45 402.26 7.05Q403.73 7.88 405.15 8.39 406.56 8.9 408.06 8.9L408.06 8.9Q410.16 8.9 411.31 7.55 412.46 6.2 412.46 3.35L412.46 3.35 412.46-24 416.31-24 416.31 3.4Q416.31 8.15 414.22 10.23 412.13 12.3 408.76 12.3ZM435.73 0.6L435.73 0.6Q432.51 0.6 429.99-0.83 427.48-2.25 426.03-5.05 424.58-7.85 424.58-11.95L424.58-11.95Q424.58-16.07 426.03-18.86 427.48-21.65 429.99-23.08 432.51-24.5 435.73-24.5L435.73-24.5Q438.93-24.5 441.44-23.08 443.96-21.65 445.39-18.86 446.83-16.07 446.83-11.95L446.83-11.95Q446.83-7.85 445.39-5.05 443.96-2.25 441.44-0.83 438.93 0.6 435.73 0.6ZM435.63-2.8L435.63-2.8Q437.96-2.8 439.58-3.91 441.21-5.03 442.04-7.08 442.88-9.13 442.88-11.95L442.88-11.95Q442.88-16.23 441.11-18.69 439.33-21.15 435.83-21.15L435.83-21.15Q433.48-21.15 431.87-20.04 430.26-18.93 429.42-16.86 428.58-14.8 428.58-11.95L428.58-11.95Q428.58-7.73 430.37-5.26 432.16-2.8 435.63-2.8ZM456.6-29.55L456.6-29.55Q455.4-29.55 454.7-30.24 454-30.93 454-32.05L454-32.05Q454-33.15 454.7-33.8 455.4-34.45 456.6-34.45L456.6-34.45Q457.8-34.45 458.5-33.8 459.2-33.15 459.2-32.05L459.2-32.05Q459.2-30.93 458.5-30.24 457.8-29.55 456.6-29.55ZM458.55 0L454.65 0 454.65-23.95 458.55-23.95 458.55 0ZM490.15 0L486.3 0 486.3-14.05Q486.3-17.48 484.66-19.26 483.03-21.05 480.2-21.05L480.2-21.05Q478.05-21.05 476.48-19.88 474.9-18.7 474.05-16.51 473.2-14.33 473.2-11.3L473.2-11.3 471.7-11.3Q471.7-15.48 472.8-18.43 473.9-21.38 476.01-22.94 478.13-24.5 481.15-24.5L481.15-24.5Q483.98-24.5 485.99-23.24 488-21.98 489.08-19.63 490.15-17.28 490.15-14.05L490.15-14.05 490.15 0ZM473.2 0L469.3 0 469.3-23.9 472.65-23.9 473.2-18.4 473.2 0ZM518.7 0.6L518.7 0.6Q516.75 0.6 515.2-0.15 513.65-0.9 512.75-2.4 511.85-3.9 511.85-6.15L511.85-6.15 511.85-30.55 515.7-30.55 515.7-6.25Q515.7-2.55 519.15-2.55L519.15-2.55Q520.17-2.55 521.13-2.78 522.1-3 523.3-3.45L523.3-3.45 523.85-0.65Q522.57-0.1 521.31 0.25 520.05 0.6 518.7 0.6ZM523.25-21.2L508-21.2 508-23.9 523.25-23.9 523.25-21.2ZM550.99 0L547.14 0 547.14-14.05Q547.14-17.48 545.5-19.26 543.87-21.05 541.04-21.05L541.04-21.05Q538.89-21.05 537.32-19.88 535.74-18.7 534.89-16.51 534.04-14.33 534.04-11.3L534.04-11.3 532.54-11.3Q532.54-15.48 533.64-18.43 534.74-21.38 536.86-22.94 538.97-24.5 541.99-24.5L541.99-24.5Q544.82-24.5 546.83-23.24 548.84-21.98 549.92-19.63 550.99-17.28 550.99-14.05L550.99-14.05 550.99 0ZM534.04 0L530.14 0 530.14-34.1 534.04-34.1 534.04 0ZM568.61 0.6L568.61 0.6Q565.51 0.6 563.08-0.99 560.64-2.58 559.23-5.4 557.81-8.22 557.81-11.9L557.81-11.9Q557.81-15.83 559.21-18.65 560.61-21.48 563.05-22.99 565.49-24.5 568.61-24.5L568.61-24.5Q571.34-24.5 573.26-23.4 575.19-22.3 576.36-20.43 577.54-18.55 578-16.19 578.46-13.83 578.26-11.3L578.26-11.3 560.96-11.3 560.96-13.7 575.69-13.7 574.54-12.95Q574.61-14.43 574.38-15.9 574.14-17.38 573.49-18.61 572.84-19.85 571.66-20.6 570.49-21.35 568.66-21.35L568.66-21.35Q566.36-21.35 564.81-20.18 563.26-19 562.49-17.09 561.71-15.18 561.71-12.95L561.71-12.95 561.71-11.35Q561.71-8.85 562.48-6.88 563.24-4.9 564.76-3.75 566.29-2.6 568.61-2.6L568.61-2.6Q570.94-2.6 572.44-3.73 573.94-4.85 574.26-7.05L574.26-7.05 578.31-7.05Q577.94-4.67 576.61-2.96 575.29-1.25 573.24-0.33 571.19 0.6 568.61 0.6ZM635.36 0L631.46 0 631.46-14.05Q631.46-17.48 629.82-19.26 628.18-21.05 625.41-21.05L625.41-21.05Q622.16-21.05 620.43-18.54 618.71-16.03 618.71-11.6L618.71-11.6 616.91-11.6Q616.91-14.83 617.55-17.25 618.18-19.68 619.41-21.29 620.63-22.9 622.38-23.7 624.13-24.5 626.36-24.5L626.36-24.5Q629.18-24.5 631.2-23.24 633.21-21.98 634.28-19.63 635.36-17.28 635.36-14.05L635.36-14.05 635.36 0ZM601.76 0L597.86 0 597.86-23.9 601.21-23.9 601.66-19.1Q602.78-21.7 604.82-23.1 606.86-24.5 609.71-24.5L609.71-24.5Q612.53-24.5 614.55-23.24 616.56-21.98 617.63-19.63 618.71-17.28 618.71-14.05L618.71-14.05 618.71 0 614.86 0 614.86-14.05Q614.86-17.48 613.22-19.26 611.58-21.05 608.76-21.05L608.76-21.05Q606.61-21.05 605.03-19.88 603.46-18.7 602.61-16.51 601.76-14.33 601.76-11.3L601.76-11.3 601.76 0ZM653.28 0.6L653.28 0.6Q650.06 0.6 647.54-0.83 645.03-2.25 643.58-5.05 642.13-7.85 642.13-11.95L642.13-11.95Q642.13-16.07 643.58-18.86 645.03-21.65 647.54-23.08 650.06-24.5 653.28-24.5L653.28-24.5Q656.48-24.5 658.99-23.08 661.51-21.65 662.94-18.86 664.38-16.07 664.38-11.95L664.38-11.95Q664.38-7.85 662.94-5.05 661.51-2.25 658.99-0.83 656.48 0.6 653.28 0.6ZM653.18-2.8L653.18-2.8Q655.51-2.8 657.13-3.91 658.76-5.03 659.59-7.08 660.43-9.13 660.43-11.95L660.43-11.95Q660.43-16.23 658.66-18.69 656.88-21.15 653.38-21.15L653.38-21.15Q651.03-21.15 649.42-20.04 647.81-18.93 646.97-16.86 646.13-14.8 646.13-11.95L646.13-11.95Q646.13-7.73 647.92-5.26 649.71-2.8 653.18-2.8ZM677.35 0L667.8-23.9 672.25-23.9 679.75-3.35 679.2-3.35 686.7-23.9 691.15-23.9 681.6 0 677.35 0ZM705.38 0.6L705.38 0.6Q702.28 0.6 699.84-0.99 697.4-2.58 695.99-5.4 694.58-8.22 694.58-11.9L694.58-11.9Q694.58-15.83 695.98-18.65 697.38-21.48 699.81-22.99 702.25-24.5 705.38-24.5L705.38-24.5Q708.1-24.5 710.03-23.4 711.95-22.3 713.13-20.43 714.3-18.55 714.76-16.19 715.23-13.83 715.03-11.3L715.03-11.3 697.73-11.3 697.73-13.7 712.45-13.7 711.3-12.95Q711.38-14.43 711.14-15.9 710.9-17.38 710.25-18.61 709.6-19.85 708.43-20.6 707.25-21.35 705.43-21.35L705.43-21.35Q703.13-21.35 701.58-20.18 700.03-19 699.25-17.09 698.48-15.18 698.48-12.95L698.48-12.95 698.48-11.35Q698.48-8.85 699.24-6.88 700-4.9 701.53-3.75 703.05-2.6 705.38-2.6L705.38-2.6Q707.7-2.6 709.2-3.73 710.7-4.85 711.03-7.05L711.03-7.05 715.08-7.05Q714.7-4.67 713.38-2.96 712.05-1.25 710-0.33 707.95 0.6 705.38 0.6ZM760.25 0L756.35 0 756.35-14.05Q756.35-17.48 754.71-19.26 753.07-21.05 750.3-21.05L750.3-21.05Q747.05-21.05 745.32-18.54 743.6-16.03 743.6-11.6L743.6-11.6 741.8-11.6Q741.8-14.83 742.44-17.25 743.07-19.68 744.3-21.29 745.52-22.9 747.27-23.7 749.02-24.5 751.25-24.5L751.25-24.5Q754.07-24.5 756.09-23.24 758.1-21.98 759.17-19.63 760.25-17.28 760.25-14.05L760.25-14.05 760.25 0ZM726.65 0L722.75 0 722.75-23.9 726.1-23.9 726.55-19.1Q727.67-21.7 729.71-23.1 731.75-24.5 734.6-24.5L734.6-24.5Q737.42-24.5 739.44-23.24 741.45-21.98 742.52-19.63 743.6-17.28 743.6-14.05L743.6-14.05 743.6 0 739.75 0 739.75-14.05Q739.75-17.48 738.11-19.26 736.47-21.05 733.65-21.05L733.65-21.05Q731.5-21.05 729.92-19.88 728.35-18.7 727.5-16.51 726.65-14.33 726.65-11.3L726.65-11.3 726.65 0ZM777.82 0.6L777.82 0.6Q774.72 0.6 772.28-0.99 769.85-2.58 768.43-5.4 767.02-8.22 767.02-11.9L767.02-11.9Q767.02-15.83 768.42-18.65 769.82-21.48 772.26-22.99 774.7-24.5 777.82-24.5L777.82-24.5Q780.55-24.5 782.47-23.4 784.4-22.3 785.57-20.43 786.75-18.55 787.21-16.19 787.67-13.83 787.47-11.3L787.47-11.3 770.17-11.3 770.17-13.7 784.9-13.7 783.75-12.95Q783.82-14.43 783.58-15.9 783.35-17.38 782.7-18.61 782.05-19.85 780.87-20.6 779.7-21.35 777.87-21.35L777.87-21.35Q775.57-21.35 774.02-20.18 772.47-19 771.7-17.09 770.92-15.18 770.92-12.95L770.92-12.95 770.92-11.35Q770.92-8.85 771.68-6.88 772.45-4.9 773.97-3.75 775.5-2.6 777.82-2.6L777.82-2.6Q780.15-2.6 781.65-3.73 783.15-4.85 783.47-7.05L783.47-7.05 787.52-7.05Q787.15-4.67 785.82-2.96 784.5-1.25 782.45-0.33 780.4 0.6 777.82 0.6ZM816.04 0L812.19 0 812.19-14.05Q812.19-17.48 810.56-19.26 808.92-21.05 806.09-21.05L806.09-21.05Q803.94-21.05 802.37-19.88 800.79-18.7 799.94-16.51 799.09-14.33 799.09-11.3L799.09-11.3 797.59-11.3Q797.59-15.48 798.69-18.43 799.79-21.38 801.91-22.94 804.02-24.5 807.04-24.5L807.04-24.5Q809.87-24.5 811.88-23.24 813.89-21.98 814.97-19.63 816.04-17.28 816.04-14.05L816.04-14.05 816.04 0ZM799.09 0L795.19 0 795.19-23.9 798.54-23.9 799.09-18.4 799.09 0ZM832.72 0.6L832.72 0.6Q830.77 0.6 829.22-0.15 827.67-0.9 826.77-2.4 825.87-3.9 825.87-6.15L825.87-6.15 825.87-30.55 829.72-30.55 829.72-6.25Q829.72-2.55 833.17-2.55L833.17-2.55Q834.19-2.55 835.15-2.78 836.12-3 837.32-3.45L837.32-3.45 837.87-0.65Q836.59-0.1 835.33 0.25 834.07 0.6 832.72 0.6ZM837.27-21.2L822.02-21.2 822.02-23.9 837.27-23.9 837.27-21.2Z" opacity="1" transform="matrix(1,0,0,1,0,0)" fill="#ffffff" class="slogan-text-1" data-fill-palette-color="secondary" id="text-1"></path></svg></g></svg></g></svg></g></svg></g><g transform="matrix(1,0,0,1,88.20719870938882,0)"><svg viewBox="0 0 219.10560258122234 219.10560258122234" height="219.10560258122234" width="219.10560258122234"><g><svg></svg></g><g id="icon-0"><svg viewBox="0 0 219.10560258122234 219.10560258122234" height="219.10560258122234" width="219.10560258122234"><g><path d="M0 109.553c0-60.504 49.048-109.553 109.553-109.553 60.504 0 109.553 49.048 109.553 109.553 0 60.504-49.048 109.553-109.553 109.553-60.504 0-109.553-49.048-109.553-109.553zM109.553 214.238c57.816 0 104.685-46.869 104.685-104.685 0-57.816-46.869-104.685-104.685-104.686-57.816 0-104.685 46.869-104.686 104.686 0 57.816 46.869 104.685 104.686 104.685z" data-fill-palette-color="accent" fill="#ffffff" stroke="transparent"></path><ellipse rx="108.45727327770506" ry="108.45727327770506" cx="109.55280129061117" cy="109.55280129061117" fill="#ffffff" stroke="transparent" stroke-width="0" fill-opacity="1" data-fill-palette-color="accent"></ellipse></g><g transform="matrix(1,0,0,1,43.759026573824045,54.18362559239543)"><svg viewBox="0 0 131.58754943357425 110.73835139643148" height="110.73835139643148" width="131.58754943357425"><g><svg xmlns="http://www.w3.org/2000/svg" xmlns:xlink="http://www.w3.org/1999/xlink" version="1.1" baseProfile="tiny" x="0" y="0" viewBox="22.130999999999993 58.7802209298745 454.687 382.64477907012554" overflow="inherit" xml:space="preserve" height="110.73835139643148" width="131.58754943357425" class="icon-z$-0" data-fill-palette-color="quaternary" id="z$-0"><path d="M460.458 273.464c-6.722 0-12.494 4.056-15.011 9.853h-22.146l-14.341-25.444c-1.145-2.03-3.287-3.294-5.617-3.312-0.018 0-0.033 0-0.051 0-2.311 0-4.45 1.227-5.617 3.224l-25.887 44.313-28.596-93.39c-0.89-2.904-3.664-4.812-6.7-4.583-3.029 0.224-5.5 2.515-5.953 5.518l-25.758 170.883L276.265 64.701c-0.298-3.298-3.026-5.846-6.337-5.919-3.327-0.077-6.148 2.354-6.591 5.635l-30.573 226.937-23.924-47.45c-1.217-2.415-3.803-3.826-6.491-3.541-2.689 0.284-4.923 2.202-5.61 4.817l-25.473 96.978-28.562-182.312c-0.481-3.072-3.07-5.375-6.177-5.494-3.111-0.123-5.865 1.977-6.581 5.003l-29.316 123.961H53.501c-2.516-5.797-8.289-9.853-15.011-9.853-9.035 0-16.359 7.324-16.359 16.358 0 9.035 7.325 16.359 16.359 16.359 6.722 0 12.495-4.057 15.011-9.854h52.274c3.016 0 5.637-2.073 6.331-5.009l22.873-96.715 28.247 180.303c0.477 3.043 3.022 5.334 6.098 5.49 3.073 0.16 5.839-1.865 6.622-4.844l29.012-110.449 25.641 50.854c1.284 2.546 4.077 3.961 6.887 3.486 2.812-0.473 4.988-2.721 5.369-5.547l25.654-190.412 28.174 312.021c0.296 3.279 2.995 5.82 6.286 5.918 0.065 0.002 0.131 0.003 0.195 0.003 3.207 0 5.95-2.346 6.431-5.536l29.542-195.99 24.559 80.205c0.756 2.47 2.902 4.258 5.469 4.557 2.572 0.3 5.065-0.95 6.369-3.181l27.659-47.346 10.641 18.88c1.152 2.046 3.318 3.312 5.667 3.312h25.947c2.516 5.797 8.289 9.854 15.011 9.854 9.035 0 16.359-7.324 16.359-16.359C476.817 280.788 469.493 273.464 460.458 273.464z" fill="#000000" data-fill-palette-color="quaternary"></path></svg></g></svg></g></svg></g></svg></g><g></g></svg></g><defs></defs></svg><rect width="293.1672516533329" height="247.2" fill="none" stroke="none" visibility="hidden"></rect></g></svg></g></svg>